<svg xmlns="http://www.w3.org/2000/svg" width="960" height="540" viewBox="0 0 960 540" font-family="'Baloo 2','Segoe UI',system-ui,sans-serif">
  <defs>
    <linearGradient id="bg" x1="0" y1="0" x2="0" y2="1">
      <stop offset="0" stop-color="#0d3320"/><stop offset="1" stop-color="#04140c"/>
    </linearGradient>
    <radialGradient id="tok" cx="0.4" cy="0.35" r="0.8">
      <stop offset="0" stop-color="#ffffff"/><stop offset="1" stop-color="#cdeede"/>
    </radialGradient>
    <linearGradient id="title" x1="0" y1="0" x2="1" y2="0">
      <stop offset="0" stop-color="#ffd15a"/><stop offset="0.5" stop-color="#5be08a"/><stop offset="1" stop-color="#5ad8ff"/>
    </linearGradient>
  </defs>
  <rect width="960" height="540" fill="url(#bg)"/>
  <g stroke="#ffffff" stroke-opacity="0.05">
    <path d="M0 108H960M0 216H960M0 324H960M0 432H960"/>
    <path d="M120 0V540M240 0V540M360 0V540M480 0V540M600 0V540M720 0V540M840 0V540"/>
  </g>
  <!-- number tokens -->
  <g font-weight="800" font-size="30" fill="#0c3a20" text-anchor="middle">
    <circle cx="230" cy="150" r="34" fill="url(#tok)"/><text x="230" y="161">12</text>
    <circle cx="720" cy="130" r="34" fill="url(#tok)"/><text x="720" y="141">7</text>
    <circle cx="800" cy="330" r="34" fill="url(#tok)"/><text x="800" y="341">24</text>
    <circle cx="180" cy="380" r="34" fill="url(#tok)"/><text x="180" y="391">15</text>
    <circle cx="640" cy="410" r="34" fill="url(#tok)"/><text x="640" y="421">36</text>
  </g>
  <!-- gremlin -->
  <g transform="translate(770,430)">
    <path d="M0,-34 L11,-11 L34,-8 L16,8 L20,32 L0,20 L-20,32 L-16,8 L-34,-8 L-11,-11 Z" fill="#ff5b6e" stroke="#7a1420" stroke-width="3"/>
    <circle cx="-8" cy="-4" r="6" fill="#fff"/><circle cx="9" cy="-4" r="6" fill="#fff"/>
    <circle cx="-6" cy="-2" r="3" fill="#2a0008"/><circle cx="11" cy="-2" r="3" fill="#2a0008"/>
  </g>
  <!-- muncher (pac style) -->
  <g transform="translate(430,300)">
    <path d="M0,0 L46,-26 A52,52 0 1 0 46,26 Z" fill="#5be08a" stroke="#0c3a20" stroke-width="3"/>
    <circle cx="6" cy="-22" r="7" fill="#0c3a20"/><circle cx="8" cy="-24" r="3" fill="#fff"/>
  </g>
  <rect x="0" y="470" width="960" height="70" fill="#04140c" fill-opacity="0.55"/>
  <text x="480" y="60" text-anchor="middle" font-size="58" font-weight="800" fill="url(#title)">🟢 Number Muncher</text>
  <text x="480" y="515" text-anchor="middle" font-size="30" font-weight="700" fill="#9fe6c0">Eat the multiples · factors · primes — dodge the Gremlin!</text>
</svg>
